HIERARCHY
ROOT ROOT
{
	OFFSET 0.000000 56.020000 -5.659234
	CHANNELS 6 Xposition Yposition Zposition Xrotation Yrotation Zrotation 
	JOINT C_spine0001_bind_JNT
	{
		OFFSET 0.000000 1.618999 0.000000
		CHANNELS 3 Xrotation Yrotation Zrotation
		JOINT C_spine0002_bind_JNT
		{
			OFFSET 0.000000 4.942001 0.000001
			CHANNELS 3 Xrotation Yrotation Zrotation
			JOINT C_spine0003_bind_JNT
			{
				OFFSET 0.000000 4.942001 -0.000000
				CHANNELS 3 Xrotation Yrotation Zrotation
				JOINT C_neck0001_bind_JNT
				{
					OFFSET 0.000000 17.026009 -0.000000
					CHANNELS 3 Xrotation Yrotation Zrotation
					JOINT C_neck0002_bind_JNT
					{
						OFFSET 0.000000 3.249985 0.000000
						CHANNELS 3 Xrotation Yrotation Zrotation
						JOINT C_head_bind_JNT
						{
							OFFSET 0.000000 5.278008 0.000000
							CHANNELS 3 Xrotation Yrotation Zrotation
							End Site
							{
								OFFSET 0.000000 0.000000 0.000000
							}
						}
					}
				}
				JOINT L_clavicle_bind_JNT
				{
					OFFSET 4.590000 12.067001 0.834000
					CHANNELS 3 Xrotation Yrotation Zrotation
					JOINT L_armUpper0001_bind_JNT
					{
						OFFSET 7.812635 0.512001 -3.452945
						CHANNELS 3 Xrotation Yrotation Zrotation
						JOINT L_armLower0001_bind_JNT
						{
							OFFSET 15.265892 -6.552116 -0.058157
							CHANNELS 3 Xrotation Yrotation Zrotation
							JOINT L_hand0001_bind_JNT
							{
								OFFSET 14.747667 -6.369995 5.049225
								CHANNELS 3 Xrotation Yrotation Zrotation
								End Site
								{
									OFFSET 0.000000 0.000000 0.000000
								}
							}
						}
					}
				}
				JOINT R_clavicle_bind_JNT
				{
					OFFSET -4.590000 12.067001 0.834000
					CHANNELS 3 Xrotation Yrotation Zrotation
					JOINT R_armUpper0001_bind_JNT
					{
						OFFSET -7.812635 0.512001 -3.452945
						CHANNELS 3 Xrotation Yrotation Zrotation
						JOINT R_armLower0001_bind_JNT
						{
							OFFSET -15.265890 -6.552124 -0.058160
							CHANNELS 3 Xrotation Yrotation Zrotation
							JOINT R_hand0001_bind_JNT
							{
								OFFSET -14.746784 -6.369629 5.048937
								CHANNELS 3 Xrotation Yrotation Zrotation
								End Site
								{
									OFFSET 0.000000 0.000000 0.000000
								}
							}
						}
					}
				}
			}
		}
	}
	JOINT C_pelvis0001_bind_JNT
	{
		OFFSET -0.000000 0.000000 0.000000
		CHANNELS 3 Xrotation Yrotation Zrotation
		JOINT L_legUpper0001_bind_JNT
		{
			OFFSET 6.599999 -6.027000 0.539000
			CHANNELS 3 Xrotation Yrotation Zrotation
			JOINT L_legLower0001_bind_JNT
			{
				OFFSET -0.140713 -19.187443 0.040261
				CHANNELS 3 Xrotation Yrotation Zrotation
				JOINT L_foot0001_bind_JNT
				{
					OFFSET -0.132215 -18.028637 -1.138370
					CHANNELS 3 Xrotation Yrotation Zrotation
					JOINT L_foot0002_bind_JNT
					{
						OFFSET 0.007014 -4.693133 9.886524
						CHANNELS 3 Xrotation Yrotation Zrotation
						End Site
						{
							OFFSET 0.000000 0.000000 0.000000
						}
					}
				}
			}
		}
		JOINT R_legUpper0001_bind_JNT
		{
			OFFSET -6.599999 -6.027000 0.539000
			CHANNELS 3 Xrotation Yrotation Zrotation
			JOINT R_legLower0001_bind_JNT
			{
				OFFSET 0.140710 -19.187164 0.040550
				CHANNELS 3 Xrotation Yrotation Zrotation
				JOINT R_foot0001_bind_JNT
				{
					OFFSET 0.132215 -18.028633 -1.138362
					CHANNELS 3 Xrotation Yrotation Zrotation
					JOINT R_foot0002_bind_JNT
					{
						OFFSET -0.007014 -4.693128 9.886505
						CHANNELS 3 Xrotation Yrotation Zrotation
						End Site
						{
							OFFSET 0.000000 0.000000 0.000000
						}
					}
				}
			}
		}
	}
}
MOTION
Frames: 16
Frame Time: 0.033333
0.000000 48.530266 0.000000 0.038829 -3.371542 -0.017417 1.728789 3.171201 -0.467664 -4.145060 -0.318761 -0.390243 3.384746 -0.169373 -1.203846 19.004097 0.831958 -0.361755 0.110799 0.071943 -0.138899 -3.188657 1.641240 -0.893235 15.178816 4.332519 25.481266 -27.020018 -9.384028 -81.558205 1.843525 16.689478 -12.908759 -3.418017 -14.551569 -26.597185 17.584066 -2.811738 -20.611641 -26.788214 1.421856 84.937218 14.273122 -25.073040 5.379275 -10.077613 17.948708 27.467251 2.989003 4.141045 -0.330482 0.019312 2.538317 -0.396263 3.310141 2.392439 -0.178779 -7.787212 -6.436713 -0.567714 -0.286990 -0.588412 0.238944 -5.822568 -2.653367 -2.880741 9.710457 -0.247273 -0.200496 -7.022956 7.622773 2.474298 -1.097049 1.092685 0.056720 
-0.239268 48.643772 0.151494 0.016101 -3.018196 -0.020708 1.417857 2.627217 -0.407791 -4.116088 -0.620657 -0.255030 3.294202 -0.250250 -1.310320 18.946724 0.589777 -0.727281 -0.097734 0.047114 0.063818 -2.286395 1.447575 -0.414360 15.082767 4.596429 25.499582 -26.597567 -9.487432 -82.093903 1.618334 16.566397 -12.532779 -3.252368 -14.386254 -27.722757 17.931522 -2.981373 -20.091908 -26.645363 1.212379 84.447128 14.928590 -24.220860 4.682816 -9.417018 18.755228 27.846083 3.175645 3.473684 -0.196519 -0.337579 3.268699 0.058164 4.356590 2.428131 0.089311 -7.973556 -7.500449 -1.283590 -0.749316 -0.413023 0.181995 -5.858335 -2.133545 -2.688545 9.589751 -0.802759 0.007448 -6.835869 7.531648 1.844197 -1.283165 0.879755 0.485832 
-0.341720 48.598503 0.124994 0.012473 -3.255319 -0.029399 1.491988 2.905616 -0.476286 -4.095137 -0.601187 -0.016321 3.564855 -0.241211 -1.306414 18.753420 0.512580 -0.404294 0.012634 -0.031920 -0.052592 -1.737952 1.345077 -0.527613 14.515215 4.537500 25.544598 -26.366030 -9.678684 -82.065056 1.635412 16.374367 -12.717595 -3.807908 -14.318599 -28.021820 17.638300 -2.983202 -20.175529 -27.313414 1.225067 84.580505 14.721133 -24.812551 4.863155 -8.841434 18.468699 27.833233 3.374482 3.742912 -0.384812 -0.366320 3.311746 0.143141 3.900555 2.447264 0.130743 -7.931165 -7.741741 -1.217731 -0.439265 -0.708890 0.182044 -5.574440 -1.765950 -2.562645 9.027092 -0.788050 0.235962 -6.733370 7.160217 1.683706 -1.101084 0.776423 0.438222 
-0.464767 48.603821 0.192118 0.013944 -3.436468 -0.024189 1.598435 3.051981 -0.371533 -3.990128 -0.661303 -0.076031 3.346551 -0.275785 -1.150579 18.901541 0.466697 -0.541977 0.040079 0.096618 -0.059962 -1.682197 1.382131 -0.678145 14.613232 4.495204 25.372316 -26.580523 -9.937280 -82.201828 1.390162 16.215340 -12.723003 -3.549443 -14.642579 -27.975180 17.768925 -2.763627 -20.278238 -27.570845 1.188321 84.451736 14.956640 -24.681938 4.960895 -8.738846 18.290728 27.753965 3.390162 4.111320 -0.403986 -0.264000 3.358502 0.567308 3.686583 2.293722 0.217288 -7.849471 -7.810242 -1.614595 -0.522936 -0.676261 0.194738 -5.557522 -1.496416 -2.500433 8.882820 -0.916950 0.267871 -6.716769 7.029823 1.631722 -0.902560 0.672785 0.475463 
-0.655412 48.617523 0.257485 0.011556 -3.348752 -0.022219 1.532464 2.985873 -0.339420 -3.929260 -0.637537 -0.071938 3.380514 -0.308111 -1.242235 18.971617 0.474953 -0.480012 -0.043146 0.028354 -0.064132 -1.601501 1.321706 -0.704475 14.701947 4.441492 25.256079 -26.932129 -10.175790 -82.202957 1.460426 16.143869 -12.523105 -3.593558 -14.682838 -27.977510 17.666687 -2.691032 -20.174442 -27.760246 1.393041 84.711411 14.948167 -24.645414 4.816880 -8.765044 18.251322 27.615187 3.487190 3.931204 -0.382024 -0.298840 3.798398 0.828379 3.574761 2.067893 0.159486 -7.843541 -7.828955 -1.806173 -0.590491 -0.964153 0.123846 -5.364488 -1.224340 -2.375583 8.555472 -0.817109 0.383683 -6.706832 6.672731 1.506608 -0.900995 0.803850 0.276783 
-0.879846 48.615868 0.268521 0.012393 -3.532836 -0.024855 1.668399 3.129643 -0.205262 -3.996801 -0.671991 -0.116327 3.424705 -0.407717 -1.235165 18.869158 0.478475 -0.555342 0.014293 0.004445 -0.096846 -1.587003 1.215809 -0.738486 14.652138 4.506796 25.136471 -27.011034 -10.176930 -82.146851 1.424395 15.947451 -12.317774 -3.438521 -14.594633 -27.983263 17.653347 -2.738528 -20.275095 -28.108044 1.623512 84.783882 15.042502 -24.410578 4.872907 -8.816583 18.156944 27.922029 3.398635 4.196017 -0.377196 -0.278969 3.919596 1.030801 3.641388 1.876199 0.322185 -7.755489 -7.821429 -2.105335 -0.620209 -0.815620 0.115457 -5.222183 -1.273619 -2.164449 8.587262 -0.916099 0.402225 -6.674695 6.768705 1.270201 -0.911666 0.813055 0.359253 
-1.165566 48.670769 0.285060 0.018103 -3.551657 -0.028339 1.639232 3.044880 -0.129086 -3.916934 -0.650836 -0.111766 3.442186 -0.413157 -1.260953 19.067989 0.364117 -0.541867 -0.016512 0.042838 -0.006326 -1.253613 0.969177 -0.808619 14.765409 4.467131 25.120167 -27.082745 -10.089847 -82.047729 1.483274 15.858048 -12.118148 -3.609096 -14.762688 -28.049551 17.612293 -2.950258 -20.153528 -28.402563 2.031828 84.887466 14.925158 -24.177065 4.832155 -8.749537 18.102234 27.958019 3.371619 4.060198 -0.290366 -0.478059 4.348253 1.437171 3.772012 1.749864 0.243509 -7.571799 -7.969320 -2.344007 -0.725126 -0.892716 0.064127 -5.096468 -1.317402 -1.849688 8.446878 -0.738296 0.430670 -6.529039 6.799269 0.883964 -0.949118 0.807527 0.366005 
-1.376871 48.662861 0.318873 0.013190 -3.702156 -0.023702 1.612247 3.181375 -0.019974 -3.890960 -0.697375 -0.145705 3.553834 -0.436960 -1.297600 19.119980 0.283532 -0.468232 0.036785 0.043564 -0.151382 -1.096151 0.951465 -0.689961 14.671051 4.531829 25.019527 -27.067112 -10.227497 -82.007622 1.291270 15.940452 -11.859061 -3.692893 -14.851370 -27.935339 17.573719 -2.997856 -20.274832 -28.774960 2.138357 85.096024 15.016191 -24.103811 4.784501 -8.759687 18.158236 28.010386 3.333223 4.223054 -0.300902 -0.520072 4.522495 1.609940 3.819057 1.722179 0.352169 -7.464040 -7.903688 -2.587431 -0.739296 -0.962990 -0.016788 -4.925850 -1.310372 -1.683248 8.392020 -0.714127 0.414000 -6.476158 6.846529 0.819591 -1.064971 0.762701 0.251599 
-1.576645 48.687862 0.356662 0.014572 -3.729485 -0.025084 1.712677 3.204052 0.020377 -3.928327 -0.663578 -0.096995 3.590093 -0.500249 -1.322326 19.240396 0.250918 -0.430193 0.035381 0.044317 -0.178117 -0.928733 0.829163 -0.659043 14.776050 4.666375 25.090200 -27.454697 -10.295159 -82.014999 1.339299 16.123068 -11.830307 -3.736887 -14.892682 -27.834251 17.588804 -3.182688 -20.329153 -29.072931 2.417845 85.129372 14.961141 -23.845045 4.940016 -8.842567 18.121235 27.797266 3.418868 4.249537 -0.293879 -0.682688 4.810447 1.965029 3.864095 1.725997 0.358786 -7.304389 -8.116743 -2.798754 -0.846073 -0.872011 -0.108595 -4.810195 -1.290687 -1.472827 8.174635 -0.673159 0.369861 -6.387870 6.810062 0.656270 -1.110733 0.736709 0.228304 
-1.779272 48.710152 0.392061 0.014822 -3.729134 -0.025311 1.742966 3.256225 0.039660 -3.925347 -0.731612 -0.121294 3.518685 -0.538769 -1.273162 19.333540 0.324127 -0.475533 0.015776 -0.052634 -0.164880 -0.845994 0.869234 -0.685011 14.841845 4.775471 25.069681 -27.563496 -10.274530 -82.006485 1.466874 16.339075 -11.809536 -3.731133 -14.834661 -27.742758 17.662504 -3.209638 -20.313227 -29.273520 2.508347 85.073318 14.998847 -23.830030 4.960812 -8.978327 18.231800 27.871323 3.465058 4.341306 -0.345558 -0.743797 4.934886 2.182247 3.792645 1.816277 0.424214 -7.172503 -8.156651 -3.041808 -0.856306 -0.826641 -0.074784 -4.669240 -1.269326 -1.219716 7.931347 -0.785954 0.360225 -6.365899 6.780433 0.478621 -1.066570 0.816112 0.295080 
-1.991558 48.726627 0.431318 0.013902 -3.951318 -0.029033 1.790763 3.513627 0.044115 -3.905777 -0.719283 -0.062195 3.537762 -0.562914 -1.294900 19.316309 0.265268 -0.492709 0.044535 -0.004116 -0.135291 -0.625387 0.826422 -0.678425 14.818591 4.728038 25.050913 -27.723282 -10.220056 -82.007782 1.588801 16.524446 -11.724537 -3.675272 -14.858082 -27.690628 17.653072 -3.251871 -20.307825 -29.443220 2.491211 85.040077 15.001210 -23.795319 4.948901 -8.917522 18.289194 27.946684 3.505475 4.644393 -0.352459 -0.842767 5.034663 2.416493 4.010022 1.849226 0.469365 -7.160193 -8.239091 -3.315511 -1.043977 -0.855530 -0.086613 -4.424553 -1.247444 -0.914609 7.595634 -0.909727 0.487963 -6.359791 6.727629 0.179620 -1.009096 0.749612 0.268696 
-2.192917 48.726559 0.451138 0.011405 -4.048604 -0.024155 1.719909 3.733759 0.153374 -3.821535 -0.745071 -0.139584 3.503593 -0.583418 -1.250448 19.442730 0.310819 -0.488379 0.093914 -0.140175 -0.171210 -0.492610 0.983694 -0.685064 14.835059 4.711886 25.050089 -27.671591 -10.251302 -82.033897 1.449533 16.580263 -11.751081 -3.515587 -14.820992 -27.484236 17.642733 -3.201719 -20.348921 -29.397970 2.535961 84.942612 15.026723 -23.761213 5.004638 -9.005114 18.374870 27.974110 3.511209 4.878910 -0.364220 -0.977294 4.972264 2.630195 4.172542 1.822799 0.507367 -7.177459 -8.185900 -3.555915 -1.035418 -0.888887 -0.080047 -4.249628 -1.203720 -0.737720 7.322257 -0.972034 0.531056 -6.280308 6.468842 0.042721 -0.966704 0.807116 0.238295 
-2.401283 48.750240 0.462256 0.011397 -4.176098 -0.025082 1.761307 3.928689 0.157508 -3.832364 -0.739476 -0.101665 3.537639 -0.629044 -1.210202 19.571760 0.279886 -0.523364 0.074719 -0.021425 -0.173099 -0.269626 0.917650 -0.641765 14.780112 4.809856 25.035992 -27.804029 -10.330379 -82.122078 1.341869 16.473419 -11.651050 -3.451924 -14.815967 -27.421124 17.643732 -3.248230 -20.383875 -29.470629 2.609078 84.835854 15.078620 -23.608744 5.013255 -9.078506 18.369450 28.174387 3.492431 5.140275 -0.375099 -1.233621 4.981810 2.995114 4.458872 1.687730 0.513369 -7.121993 -8.251491 -3.808269 -1.147439 -0.888409 -0.104556 -3.975426 -1.218018 -0.492590 6.930134 -1.072281 0.637961 -6.151121 6.371744 -0.253630 -0.943523 0.704340 0.287488 
-2.598148 48.744572 0.473901 0.015341 -4.156553 -0.025859 1.737802 4.034169 0.223723 -3.764657 -0.818135 -0.112810 3.456706 -0.640269 -1.205722 19.590490 0.388950 -0.557718 0.027389 -0.110962 -0.154814 -0.186792 1.144127 -0.746832 14.800256 4.805405 25.000900 -27.877991 -10.296583 -82.178841 1.246544 16.330135 -11.686457 -3.500631 -14.783416 -27.397329 17.592501 -3.160872 -20.400269 -29.270365 2.633010 84.707504 15.108425 -23.523731 5.086370 -9.092452 18.476294 28.298231 3.478496 5.249532 -0.326664 -1.527578 4.935900 3.167317 4.825378 1.506763 0.563740 -7.167513 -8.303509 -3.985361 -1.193855 -0.843043 -0.115880 -3.780471 -1.114168 -0.422995 6.769512 -1.210941 0.721442 -6.170181 6.232300 -0.380278 -0.914908 0.817132 0.181117 
-2.802217 48.746166 0.482886 0.013436 -4.354500 -0.026054 1.806400 4.281860 0.253815 -3.721912 -0.830499 -0.091227 3.487765 -0.614547 -1.145318 19.629526 0.314047 -0.615204 0.049539 -0.076131 -0.161345 -0.198802 1.102537 -0.729050 14.701770 4.790213 24.954712 -27.814976 -10.442864 -82.339241 1.096126 16.141731 -11.654957 -3.448918 -14.844893 -27.318739 17.569704 -3.139160 -20.440615 -29.332802 2.644259 84.568886 15.161017 -23.376732 5.177871 -8.994292 18.390982 28.404474 3.512354 5.528032 -0.293882 -1.905057 4.920913 3.434403 5.372308 1.362340 0.524244 -7.260560 -8.371591 -4.212505 -1.319967 -0.959695 -0.137057 -3.697751 -1.027803 -0.230939 6.608800 -1.202787 0.789973 -6.134065 6.093850 -0.623367 -0.902115 0.674344 0.206502 
-3.008565 48.747044 0.486066 0.015928 -4.464480 -0.023115 1.852418 4.434049 0.280867 -3.753181 -0.835222 -0.080881 3.576529 -0.701992 -1.119971 19.617609 0.450473 -0.688668 0.066167 -0.128378 -0.118733 -0.181012 1.211287 -0.793987 14.650724 4.846554 24.899057 -27.811071 -10.456699 -82.457878 0.987617 15.917757 -11.580046 -3.411774 -14.811109 -27.291327 17.571913 -3.032333 -20.418121 -29.408695 2.761150 84.401810 15.219612 -23.120207 5.302183 -9.015219 18.234447 28.411707 3.567918 5.650365 -0.315151 -2.388081 4.866093 3.647414 6.027403 1.255036 0.542675 -7.416624 -8.508929 -4.381705 -1.429586 -0.853284 -0.153480 -3.645418 -0.849493 -0.042774 6.516331 -1.249183 0.913412 -6.103767 5.852406 -0.822632 -0.930758 0.778444 0.181216 
